<svg preserveAspectRatio="none" width="100%" height="100%" overflow="visible" style="display: block;" viewBox="0 0 82.2855 61.5544" fill="none" xmlns="http://www.w3.org/2000/svg">
<g id="Group">
<path id="Vector" d="M0 0.87487V0H20.5194C31.2187 0 39.9261 8.66477 39.9261 19.3117V20.1866H19.4067C8.70738 20.1866 0 11.5218 0 0.87487Z" fill="url(#paint0_linear_13_174)"/>
<path id="Vector_2" d="M20.6299 61.5544H19.7507V41.1354C19.7507 30.4884 28.4581 21.8237 39.1574 21.8237H40.0366V42.2427C40.0366 52.8896 31.3292 61.5544 20.6299 61.5544Z" fill="url(#paint1_linear_13_174)"/>
<path id="Vector_3" d="M62.8788 20.1868H42.3593V19.3119C42.3593 8.66493 51.0667 0.000160976 61.766 0.000160976H82.2855V0.875031C82.2855 11.522 73.5781 20.1868 62.8788 20.1868Z" fill="url(#paint2_linear_13_174)"/>
<path id="Vector_4" d="M42.3627 42.2427V21.8237H43.2419C53.9412 21.8237 62.6485 30.4884 62.6485 41.1354V61.5544H61.7694C51.0701 61.5544 42.3627 52.8896 42.3627 42.2427Z" fill="url(#paint3_linear_13_174)"/>
</g>
<defs>
<linearGradient id="paint0_linear_13_174" x1="0" y1="10.0917" x2="39.9261" y2="10.0917" gradientUnits="userSpaceOnUse">
<stop stop-color="#0F1F25"/>
<stop offset="1" stop-color="#192F31"/>
</linearGradient>
<linearGradient id="paint1_linear_13_174" x1="19.7475" y1="41.6906" x2="40.0366" y2="41.6906" gradientUnits="userSpaceOnUse">
<stop stop-color="#0F1F25"/>
<stop offset="1" stop-color="#192F31"/>
</linearGradient>
<linearGradient id="paint2_linear_13_174" x1="42.3626" y1="10.0918" x2="82.2855" y2="10.0918" gradientUnits="userSpaceOnUse">
<stop stop-color="#0F1F25"/>
<stop offset="1" stop-color="#192F31"/>
</linearGradient>
<linearGradient id="paint3_linear_13_174" x1="42.3627" y1="41.6906" x2="62.6485" y2="41.6906" gradientUnits="userSpaceOnUse">
<stop stop-color="#0F1F25"/>
<stop offset="1" stop-color="#192F31"/>
</linearGradient>
</defs>
</svg>
